<svg width="16" height="16" viewBox="0 0 16 16" fill="none" xmlns="http://www.w3.org/2000/svg">
<path fill-rule="evenodd" clip-rule="evenodd" d="M8 7.04348C7.31041 7.04348 6.74931 7.62202 6.74931 8.33331C6.74931 9.04461 7.31041 9.62315 8 9.62315C8.6896 9.62315 9.2507 9.04449 9.2507 8.33331C9.2507 7.62214 8.6896 7.04348 8 7.04348ZM7.99996 4.66667C5.63806 4.66667 3.30756 6.41374 2.66663 8.33334C3.30756 10.2529 5.63806 12 7.99996 12C10.3619 12 12.6924 10.2529 13.3333 8.33334C12.6924 6.41374 10.3619 4.66667 7.99996 4.66667ZM8.00008 10.4326C6.87755 10.4326 5.96448 9.49085 5.96448 8.33331C5.96448 7.17577 6.87755 6.23401 8.00008 6.23401C9.12261 6.23401 10.0357 7.17577 10.0357 8.33331C10.0357 9.49085 9.12261 10.4326 8.00008 10.4326Z" fill="#025992"/>
</svg>
