<svg width="16" height="16" viewBox="0 0 16 16" fill="none" xmlns="http://www.w3.org/2000/svg">
<path fill-rule="evenodd" clip-rule="evenodd" d="M12 0C14.2091 0 16 1.79086 16 4V12C16 14.2091 14.2091 16 12 16H4C1.79086 16 0 14.2091 0 12V4C0 1.79086 1.79086 0 4 0H12ZM11.9209 4.55239C11.6219 4.2657 11.1471 4.27565 10.8604 4.57462L6.231 9.401L4.64895 7.6315C4.38268 7.36523 3.96602 7.34103 3.67241 7.55888L3.58829 7.6315C3.29539 7.92439 3.29539 8.39927 3.58829 8.69216L5.67224 11.0221C5.96514 11.315 6.44001 11.315 6.7329 11.0221C6.74083 11.0142 6.74854 11.0062 6.75603 10.998L6.7932 10.9715L6.87577 10.8972L11.9431 5.61282C12.2298 5.31385 12.2198 4.83908 11.9209 4.55239Z" fill="#084782"/>
</svg>
